<svg width="86" height="42" viewBox="0 0 86 42" fill="none" xmlns="http://www.w3.org/2000/svg">
<path d="M0.304356 0.147961C0.268068 0.24473 0.255972 0.510841 0.280164 0.740665C0.316452 1.11564 0.340644 1.13983 0.860772 1.17612C1.15108 1.20031 1.46557 1.27289 1.55024 1.34546C1.78007 1.52691 1.78007 18.7758 1.55024 18.9572C1.46557 19.0298 1.15108 19.1024 0.860772 19.1266C0.328548 19.1629 0.316452 19.175 0.280164 19.6346C0.255972 19.8886 0.29226 20.1427 0.364836 20.191C0.437412 20.2273 1.48976 20.2515 2.69936 20.2273C5.14276 20.1789 5.39677 20.1064 5.63869 19.3927C5.69917 19.1992 5.75965 19.0298 5.77175 19.0056C5.78384 18.9814 6.08624 19.1508 6.43703 19.3806C7.4289 19.9975 8.08208 20.2152 8.953 20.2152C9.59408 20.2152 9.88439 20.1306 10.6101 19.7798C12.7149 18.7395 13.7672 16.405 13.4406 13.5019C13.1624 10.9981 12.1705 9.17158 10.719 8.5063C9.5457 7.94988 7.65872 8.16761 6.43703 8.99014L5.83223 9.4014L5.79594 5.32505C5.75965 0.873722 5.74756 0.776953 5.0097 0.281017C4.7194 0.075386 4.3928 0.0511932 2.51792 0.0149059C0.71562 -0.0213833 0.364836 0.00280952 0.304356 0.147961ZM7.91274 10.1393C9.03767 10.5747 9.61828 12.7883 9.32797 15.5341C9.09815 17.7114 8.59012 18.6186 7.59824 18.6186C6.96925 18.6186 6.47332 18.3041 6.09834 17.6872C5.83223 17.2396 5.82013 17.1428 5.82013 14.1309C5.82013 11.0827 5.82013 11.0344 6.09834 10.8045C6.58218 10.3691 7.04183 10.1272 7.53776 10.0425C7.58615 10.0425 7.75549 10.0788 7.91274 10.1393Z" fill="#8A8A8A"/>
<path d="M59.8893 4.90193C59.6232 5.45835 59.2361 5.95428 58.6192 6.57118C57.6394 7.52676 56.8411 8.0227 56.0549 8.15575L55.5347 8.24043V8.77265V9.30487H56.1153C56.4298 9.30487 56.7443 9.35326 56.829 9.40164C56.9258 9.46212 56.9742 10.6112 57.0104 13.599C57.0467 17.639 57.0467 17.7237 57.337 18.3527C57.6878 19.1268 58.3773 19.7437 59.1877 20.0219C59.9377 20.2638 61.3529 20.2638 62.0545 20.0219C63.1431 19.6228 65.4534 17.6511 65.2962 17.2398C65.1631 16.8891 64.8728 16.9012 64.0866 17.2882C62.756 17.9414 61.9577 17.7721 61.4376 16.7076C61.1715 16.1512 61.1594 16.0423 61.1594 12.7522V9.36535L62.5867 9.32907L64.0019 9.29278V8.76055V8.22833L62.5867 8.19204L61.1594 8.15575L61.1231 6.12362L61.0989 4.10359H60.6755C60.2885 4.10359 60.2401 4.15198 59.8893 4.90193Z" fill="#8A8A8A"/>
<path d="M19.4643 8.22831C17.4201 8.53071 15.6904 9.81289 14.7953 11.6999C14.3477 12.6192 14.3477 12.6434 14.3598 14.1433C14.3719 15.8488 14.5896 16.6955 15.3033 17.8204C16.2226 19.2478 17.9765 20.1066 20.2747 20.2396C22.4762 20.3606 24.085 19.6106 25.3793 17.8567C25.9115 17.131 25.9115 17.1189 25.6696 16.889C25.4276 16.6471 25.4276 16.6471 24.7261 16.9616C22.7786 17.8204 20.7465 17.8567 19.6458 17.0584C19.174 16.7076 18.5692 15.7641 18.4966 15.2319L18.4603 14.9295L20.4562 14.8569C22.319 14.7964 22.5004 14.7722 23.2141 14.4457C24.4721 13.8771 25.0527 13.0062 25.0527 11.6757C25.0406 9.89756 23.6374 8.53071 21.4843 8.21622C20.5288 8.08316 20.4199 8.08316 19.4643 8.22831ZM21.1215 9.59516C21.4723 9.94595 21.5932 10.5145 21.5206 11.5305C21.436 12.9095 20.6013 13.7078 19.0651 13.865L18.3999 13.9376V13.1393C18.3999 11.5547 18.7748 10.5024 19.5974 9.75241C20.1901 9.20809 20.686 9.15971 21.1215 9.59516Z" fill="#8A8A8A"/>
<path d="M40.1487 8.15565C40.0882 8.21613 40.0519 8.49434 40.0519 8.78464V9.30477H40.5721C40.8503 9.30477 41.1406 9.35315 41.2253 9.40154C41.322 9.46202 41.3825 10.6111 41.4188 13.5384C41.4672 17.9292 41.4914 18.1469 42.1445 19.0058C42.8582 19.9372 44.2372 20.3726 45.8338 20.167C46.5838 20.0702 47.8297 19.5138 48.6643 18.8969L49.2691 18.4614L49.4989 18.7517C49.6199 18.909 49.7287 19.0783 49.7287 19.1267C49.7287 19.284 50.8779 19.9492 51.3496 20.0823C52.16 20.3 53.4906 20.2516 54.1196 19.9734C54.7849 19.6831 55.6558 18.909 55.9582 18.3163C56.1759 17.9171 56.1759 17.8808 55.9945 17.6873C55.813 17.518 55.7284 17.5059 55.2929 17.6389C54.3857 17.905 53.5269 17.3728 53.2366 16.3446C53.1761 16.0906 53.1156 14.5302 53.1156 12.7158C53.1156 8.10727 53.2003 8.21613 49.7529 8.21613H47.5394L47.5757 8.72416C47.6119 9.24429 47.6119 9.24429 48.1563 9.30477C48.4587 9.34106 48.7732 9.41363 48.8578 9.46202C48.9667 9.53459 49.003 10.4781 49.003 13.4658V17.3607L48.6038 17.7478C47.9748 18.3526 47.0192 18.5461 46.354 18.1953C45.6766 17.8566 45.6161 17.4454 45.6161 13.3327C45.6161 8.10727 45.6887 8.22823 42.3018 8.13146C41.1648 8.09517 40.1971 8.10727 40.1487 8.15565Z" fill="#8A8A8A"/>
<path d="M29.9393 8.45789C28.4757 8.83287 27.3024 9.54653 26.9274 10.2844C26.6976 10.7198 26.6976 11.7601 26.9274 12.1956C27.1814 12.6915 27.8104 12.9455 28.8144 12.9455C30.1933 12.9576 30.6046 12.5342 30.7376 10.9739C30.8223 10.0667 30.8586 9.95779 31.2094 9.6433C31.5239 9.35299 31.6932 9.30461 32.2617 9.30461C33.556 9.30461 33.7616 9.6433 33.7616 11.748V13.2479L32.3464 13.3931C29.2014 13.7197 27.133 14.6027 26.504 15.8969C26.2742 16.3687 26.2379 16.5985 26.2863 17.2638C26.4073 18.8846 27.2782 19.7556 29.1047 20.0821C30.665 20.3483 31.669 20.0942 33.3866 18.9814L34.1487 18.4855L34.6204 19.0177C35.3583 19.8644 36.0115 20.1184 37.4509 20.1305C38.467 20.1305 38.7331 20.0942 39.1443 19.8644C39.6645 19.5862 40.2693 19.0419 40.7531 18.4008C41.0313 18.0379 41.0434 17.9774 40.8862 17.6992C40.7652 17.4694 40.6684 17.4089 40.4749 17.4815C40.3418 17.5178 39.9911 17.5904 39.6887 17.6146C39.2532 17.6629 39.0718 17.6146 38.8057 17.4089C38.1283 16.8767 38.0678 16.5985 37.9952 13.8406C37.9226 10.9618 37.8138 10.5626 36.9066 9.74007C35.4188 8.39741 32.3343 7.8289 29.9393 8.45789ZM33.7616 15.4978C33.7616 16.1147 33.7979 16.8283 33.8342 17.0702C33.9068 17.4936 33.8947 17.5299 33.3383 17.8807C32.6488 18.3161 32.0198 18.4371 31.3545 18.2557C30.7618 18.0984 30.4836 17.7355 30.411 16.9977C30.2538 15.655 31.6327 14.4212 33.3141 14.397L33.7616 14.3849V15.4978Z" fill="#8A8A8A"/>
<path d="M64.7522 8.72417L64.7885 9.2443L65.3449 9.28059L65.8892 9.31687L68.4899 14.1795C69.9172 16.8527 71.1873 19.2356 71.3083 19.4775L71.5381 19.9251L70.9696 20.7718C70.3527 21.7032 69.893 22.054 69.131 22.187C68.3447 22.308 68.0907 22.0177 68.006 20.9048C67.8851 19.3928 67.2561 18.655 66.1433 18.7034C65.3691 18.7397 64.97 19.0179 64.728 19.6831C64.3772 20.6992 64.97 22.1386 66.0344 22.8523C66.8085 23.3603 67.4012 23.5055 68.7197 23.5176C69.7358 23.5176 69.9535 23.4813 70.5583 23.1789C70.9696 22.9733 71.5018 22.562 71.8889 22.1386C72.5904 21.3887 72.8082 20.9774 76.4974 13.3569C77.4893 11.2885 78.3602 9.5467 78.4207 9.46203C78.4812 9.37735 78.7594 9.30478 79.0376 9.28059C79.5456 9.2443 79.5456 9.2443 79.5456 8.76046V8.27662L76.9813 8.24033L74.4048 8.21614V8.76046V9.30478H75.554C76.1829 9.30478 76.7031 9.32897 76.7031 9.36526C76.7031 9.5346 73.921 15.7761 73.8363 15.8003C73.7275 15.8366 70.6551 9.65556 70.6551 9.41364C70.6551 9.35316 71.03 9.30478 71.4897 9.30478H72.3243L72.3727 8.89351C72.3969 8.66369 72.3969 8.42177 72.3727 8.34919C72.3364 8.25243 71.1994 8.21614 68.5262 8.21614H64.7159L64.7522 8.72417Z" fill="#8A8A8A"/>
<path d="M80.5372 14.4697C80.4889 14.506 80.4526 15.0261 80.4526 15.6067V16.659L79.0736 17.7235C78.3116 18.3162 77.6947 18.8121 77.7068 18.8242C77.731 18.8363 78.3963 18.7396 79.1825 18.6186C80.9001 18.3404 81.3477 18.3283 81.517 18.5339C81.6138 18.6428 81.5775 19.175 81.3719 20.433C81.2146 21.4007 81.0937 22.199 81.1179 22.2232C81.1299 22.2353 81.6259 21.6305 82.2186 20.8564L83.2951 19.4774L84.408 19.4653C85.0491 19.4653 85.5571 19.4169 85.5934 19.3323C85.6418 19.2718 85.3877 18.7759 85.037 18.2436L84.408 17.2759L84.6741 16.3929C84.8071 15.897 84.9281 15.3769 84.9281 15.2317C84.9281 14.9172 84.795 14.9293 83.4645 15.2922L82.6661 15.5099L81.7831 14.9535C80.9001 14.3971 80.6945 14.3124 80.5372 14.4697Z" fill="#8A8A8A"/>
<path d="M21.2667 22.332C21.2183 22.3683 21.182 22.6465 21.182 22.9247V23.4448L21.8231 23.4811L22.4521 23.5174V32.408V41.2985L21.8473 41.359L21.2425 41.4195L21.2062 42.0001L21.1699 42.5686L24.5931 42.5444L28.0163 42.5081L28.0525 42.109C28.113 41.5525 27.9074 41.359 27.2905 41.359C26.9276 41.359 26.7462 41.2985 26.6978 41.1655C26.6615 41.0566 26.6252 39.4962 26.6252 37.6818V34.3796L27.097 33.6418C27.6292 32.8192 28.0767 32.5289 28.7783 32.5289C29.3226 32.5289 29.6976 32.8192 29.8669 33.3998C29.9395 33.6176 30.0242 35.2626 30.0605 37.0649C30.0968 38.9882 30.1814 40.5244 30.2661 40.8147C30.5806 41.9154 31.8507 42.5686 33.6651 42.5686C34.4392 42.5686 34.6812 42.5081 35.3222 42.1936C36.0843 41.8066 36.9068 40.9356 36.9068 40.5123C36.9068 40.1373 36.6165 40.0043 36.2294 40.2099C35.7819 40.4397 35.419 40.4397 34.9836 40.2099C34.2457 39.8349 34.0159 38.7221 34.0038 35.6618C34.0038 33.3152 33.8586 32.4563 33.3506 31.7064C32.7821 30.8597 32.0684 30.5452 30.5806 30.4968C29.4557 30.4484 29.3468 30.4726 28.6453 30.8234C28.234 31.0169 27.6171 31.4403 27.2663 31.7427L26.6373 32.2991L26.601 27.7631L26.5647 23.2392L26.2623 22.9126C25.7301 22.332 25.343 22.2473 23.2625 22.2473C22.2102 22.2473 21.303 22.2836 21.2667 22.332Z" fill="#8A8A8A"/>
<path d="M75.7833 23.3602C73.7269 25.5011 70.957 29.0695 69.8199 31.0774C68.4047 33.5329 67.6547 35.8916 67.5459 38.214C67.4491 40.0889 67.6547 40.8268 68.4773 41.6251C69.1788 42.3025 69.9409 42.5686 71.1868 42.5686C72.8197 42.5565 74.2229 41.7703 76.376 39.6293C77.9242 38.0931 78.0815 37.8391 77.646 37.573C77.4888 37.4641 77.3436 37.5367 76.9203 37.9237C75.5171 39.218 74.1382 40.0284 73.3278 40.0284C72.9286 40.0284 72.7351 39.9438 72.3601 39.6051C71.7311 39.0245 71.5618 38.3471 71.6585 36.6537C71.8762 32.6741 73.7269 28.1623 76.7146 24.3036C77.138 23.7593 77.5614 23.215 77.646 23.094C77.767 22.9247 77.7549 22.84 77.5372 22.5739C77.4041 22.3925 77.1985 22.2473 77.0775 22.2473C76.9566 22.2473 76.376 22.7554 75.7833 23.3602Z" fill="#8A8A8A"/>
<path d="M41.4546 30.6661C40.4869 30.8839 39.2773 31.404 38.6725 31.8636C38.0677 32.3233 37.7048 33.1216 37.8016 33.799C37.9588 34.803 38.6483 35.311 39.87 35.311C41.2369 35.311 41.8538 34.682 41.8659 33.2789C41.8659 32.9281 41.9505 32.4684 42.0594 32.2749C42.386 31.6338 43.4383 31.3677 44.1641 31.7427C44.7689 32.0572 44.8899 32.4563 44.8899 34.1377V35.6376L43.777 35.7102C40.7167 35.8916 38.225 36.9198 37.5839 38.2624C37.3661 38.7342 37.3299 39.7502 37.5234 40.4276C37.6806 41.0082 38.3338 41.7461 38.9386 42.0364C39.495 42.3025 40.6683 42.5565 41.3336 42.5686C42.0352 42.5686 43.0996 42.1694 44.2488 41.48L45.2406 40.8752L45.8333 41.4679C46.3051 41.9396 46.6075 42.1211 47.2486 42.3146C49.0751 42.8831 50.6113 42.3872 51.712 40.8994C52.0991 40.3671 52.1475 40.2462 52.0265 40.0163C51.9176 39.8107 51.8209 39.7744 51.5668 39.847C50.9741 40.0163 50.2605 39.968 49.9339 39.7502C49.2686 39.3148 49.196 38.9761 49.1235 36.2182C49.063 33.8837 49.0267 33.6297 48.7727 33.1095C48.4824 32.4926 47.6356 31.6701 46.9462 31.3193C45.4947 30.5815 43.0996 30.2912 41.4546 30.6661ZM44.914 38.2382C44.9624 39.8954 44.9261 40.0043 44.1399 40.4034C43.644 40.6574 42.6521 40.7058 42.1924 40.5002C41.5393 40.2099 41.2973 39.0971 41.6965 38.2624C42.0957 37.4157 43.2206 36.7867 44.3697 36.7746L44.8657 36.7625L44.914 38.2382Z" fill="#8A8A8A"/>
<path d="M51.2046 31.0411L51.2409 31.6217L51.8457 31.6822L52.4505 31.7427L52.511 35.9158L52.5715 40.0889L52.9223 40.7905C53.5271 42.0364 54.7367 42.6291 56.4906 42.5444C57.2405 42.5202 57.5792 42.4235 58.3171 42.0727C58.813 41.8307 59.4904 41.4316 59.8291 41.1776C60.2524 40.8389 60.4339 40.7663 60.4702 40.8873C60.5064 40.984 60.7726 41.2985 61.0871 41.6009C61.7765 42.2783 62.5991 42.5686 63.8087 42.5686C65.1029 42.5686 66.0222 42.0606 66.9778 40.8147C67.2681 40.4276 67.2923 40.355 67.1351 40.0768C67.0141 39.8349 66.9173 39.7865 66.7238 39.8591C66.5907 39.9075 66.2037 39.9559 65.865 39.9559C65.1271 39.968 64.8126 39.7502 64.4739 39.0003C64.2683 38.5648 64.2441 38.1536 64.2441 35.19C64.2441 31.4766 64.2078 31.283 63.4095 30.7387C63.0103 30.4726 62.9136 30.4726 60.8693 30.4968L58.7404 30.5331V31.0774V31.6217L59.3452 31.6822L59.95 31.7427L60.0226 35.6739C60.071 39.1575 60.0589 39.6414 59.8896 39.8954C59.4178 40.6091 57.8937 40.9356 57.3494 40.4518C56.6962 39.8712 56.6841 39.7744 56.6236 35.4924C56.5511 31.0532 56.5632 31.0653 55.7406 30.6661C55.4019 30.5089 54.9181 30.4726 53.2368 30.4726H51.1683L51.2046 31.0411Z" fill="#8A8A8A"/>
</svg>
