<svg width="91" height="23" viewBox="0 0 91 23" fill="none" xmlns="http://www.w3.org/2000/svg">
<g clip-path="url(#clip0_30974_1209)">
<path fill-rule="evenodd" clip-rule="evenodd" d="M86.1261 14.3249C86.1111 16.4412 86.4132 20.0943 83.5394 20.8658C80.4111 21.7054 79.577 17.9435 81.6752 16.0444C82.6232 15.1857 84.5499 14.5358 86.1261 14.3249ZM41.7786 2.33334C39.5221 3.11167 40.8819 6.12837 42.7996 5.46888C44.8407 4.76675 43.8836 1.60762 41.7786 2.33334ZM39.5806 9.18545C40.0532 9.99099 41.4588 8.51144 41.4851 11.2379L41.486 19.3509C41.4806 19.99 41.4801 20.6431 41.0787 20.9801C40.4238 21.5294 39.8355 20.8785 39.5806 21.533C39.8926 21.7897 40.4873 21.7022 40.9889 21.6981C41.5028 21.694 42.0185 21.6977 42.5329 21.6977C43.2228 21.6981 45.1024 21.821 45.5577 21.533C45.4838 21.3951 45.7696 21.3638 44.8697 21.2328C43.1869 20.9878 43.6582 19.8013 43.6582 16.1305C43.6582 13.6881 43.665 11.2442 43.6577 8.80172C43.0672 8.75002 39.8255 8.81578 39.5806 9.18545ZM36.4863 10.6337C35.6599 10.7543 35.0344 10.904 34.8185 11.6579C34.5663 12.5387 35.0467 13.2318 35.5846 13.4336C37.2365 14.0523 38.097 12.2412 37.4647 10.7861C36.3956 8.32547 33.2188 7.77574 30.4153 9.28568C25.3421 12.0175 25.904 20.698 31.4929 22.0242C34.9079 22.8343 38.1654 19.7401 37.9087 19.1205C37.6212 18.427 37.1408 20.6399 34.4756 21.069C29.2505 21.9104 28.8754 14.4882 30.2134 11.2682C31.6517 7.80886 36.1407 8.67109 36.4863 10.6337ZM0.602905 16.712V21.9072C1.44156 21.7485 0.958052 20.6821 2.35777 20.9271C3.29803 21.0917 6.41905 22.9591 9.12234 21.1756C11.0033 19.9351 12.1953 16.0752 7.83828 14.4242C6.43357 13.8922 4.84062 13.6599 3.52754 13.0794C-0.00896275 11.5154 3.29893 7.11761 7.32983 9.78688C8.19207 10.3579 8.78488 11.1204 9.18448 12.179C9.33053 12.5664 9.34414 12.8902 9.6063 13.2259C9.62807 13.1941 9.65075 13.1039 9.65756 13.122C9.74555 13.3579 9.89251 9.60999 9.72196 8.58492C8.96314 8.74639 9.23256 9.62223 7.74212 9.25031C6.32789 8.89697 3.47764 7.49317 1.44473 10.0268C0.527612 11.1694 0.535323 13.0912 1.41752 14.2836C2.13144 15.2488 3.71849 15.7958 5.26653 16.2267C6.61908 16.6041 8.5141 17.1198 9.15228 18.0042C10.259 19.5369 8.64292 21.0722 7.39015 21.3793C4.07454 22.1921 1.28689 19.3885 0.910427 16.7125L0.602905 16.712ZM64.4236 1.03794C64.7075 1.34319 64.4295 1.20757 65.5498 1.24976C66.0991 1.27062 66.1726 1.29829 66.4874 1.59674C66.8416 2.13558 63.272 13.9121 62.8642 15.3681C62.3762 17.1089 60.6671 21.225 63.0652 21.8437C64.478 22.2084 65.4446 21.1801 66.0211 20.581C66.5753 20.0058 66.9867 19.3318 67.3895 18.5943C67.6685 18.0841 67.7161 18.1698 67.5083 17.8051C67.1296 17.9779 66.6611 18.9377 66.0306 19.6897C65.5625 20.2471 64.9384 21.0046 64.0644 20.4608C63.7423 19.3191 64.7583 16.4476 65.094 15.2805L69.27 0.407021L65.4473 0.718171C64.3474 0.808885 64.5964 0.779403 64.4236 1.03794ZM72.4273 1.08239C72.9181 1.53369 73.9785 0.900507 74.4416 1.61896C74.7913 2.2458 73.114 7.42559 72.8151 8.47016C72.1561 10.7757 71.5488 12.9696 70.8779 15.2796C70.3572 17.0712 68.7262 21.0468 70.9469 21.8088C73.2129 22.5862 75.8173 18.5544 75.5039 17.8868C75.181 17.8496 75.4708 17.6319 74.7773 18.661C74.3654 19.2715 73.0623 21.4491 72.1661 20.4345C71.4948 19.8303 72.8183 16.2707 73.0551 15.3985C73.6928 13.0462 77.0619 1.56726 77.261 0.397949L72.8641 0.779857C72.2994 0.929535 72.6623 0.621106 72.4273 1.08239ZM52.4452 9.01762C54.1175 8.44023 55.2447 9.50567 55.7912 10.4609C57.1143 12.7737 57.43 20.7007 54.0776 21.631C50.9657 22.4946 50.0195 18.9545 49.8907 16.2575C49.7501 13.3052 50.0758 9.83587 52.4452 9.01762ZM47.3085 16.2593C47.714 19.3005 50.6001 22.7695 54.152 22.0832C57.1048 21.5126 59.6938 18.1226 59.2511 14.3303C58.8823 11.1703 56.0185 7.8778 52.413 8.52323C49.3936 9.06389 46.8001 12.4493 47.3085 16.2593ZM15.4674 16.5165C14.8872 7.42649 19.9296 8.01296 21.1905 10.2069C21.9067 11.4533 22.1439 12.585 22.241 14.1988C22.4111 17.0227 22.0813 20.7556 19.8103 21.5779C16.711 22.6996 15.6311 19.0851 15.4674 16.5165ZM18.152 8.51779C12.6988 9.45623 11.0673 16.6902 14.9607 20.4231C19.6094 24.8795 25.3325 19.9492 24.8363 14.5163C24.5098 10.9444 21.4001 7.95899 18.152 8.51779ZM90.6369 19.662V18.549C89.8472 18.5381 90.4355 18.5295 90.1992 18.7032C90.0472 21.8288 88.726 21.016 88.4865 20.4699C88.2152 19.8498 88.3191 16.771 88.3191 15.8734C88.3191 12.7192 88.6207 9.78643 85.8104 8.86658C83.299 8.04381 79.7384 8.81261 78.8903 10.6895C78.2058 12.2053 79.2681 13.6726 80.7526 12.9342C81.2076 12.7074 81.619 12.0498 81.3695 11.276C81.1273 10.5244 80.5689 10.6605 80.0174 10.2141C80.3979 9.07795 83.2441 8.60896 84.6048 9.30065C85.9823 10.0014 86.1338 11.9128 86.1225 13.8123C82.9189 14.5707 77.7613 15.6888 77.9763 19.3518C78.1469 22.2519 82.1038 22.7971 84.5141 21.069C85.4203 20.4191 85.487 19.9292 86.1211 19.1749C86.0617 22.9795 89.326 22.0487 89.8916 21.4319C90.3262 20.9579 90.3457 20.2181 90.6369 19.662Z" fill="#8A8A8A"/>
</g>
<defs>
<clipPath id="clip0_30974_1209">
<rect width="90.0396" height="21.7728" fill="white" transform="translate(0.599731 0.397949)"/>
</clipPath>
</defs>
</svg>
