<svg width="142" height="26" viewBox="0 0 142 26" fill="none" xmlns="http://www.w3.org/2000/svg">
<g clip-path="url(#clip0_30974_1212)">
<path d="M98.7371 16.8554C98.7585 17.5183 99.0579 18.1423 99.6586 18.6769C100.257 19.2135 101.01 19.4701 101.91 19.4701C103.69 19.4701 104.699 18.5273 104.89 17.3045C104.997 15.8465 103.924 15.0106 102.382 14.6665L100.473 14.1941C98.0723 13.572 96.8728 12.2851 96.8728 10.3352C96.8728 9.11246 97.3452 8.12491 98.288 7.35509C99.2309 6.56194 100.347 6.17702 101.655 6.17702C103.028 6.17702 104.163 6.58332 105.063 7.37647C105.965 8.16962 106.414 9.19994 106.414 10.5063H104.419C104.419 9.04831 103.263 8.08409 101.632 8.08409C100.881 8.08409 100.238 8.29987 99.6819 8.70616C99.1454 9.11246 98.8674 9.64901 98.8674 10.3119C98.8674 11.3403 99.575 12.0285 100.969 12.3706L102.897 12.843C105.704 13.5506 107.122 15.1583 106.844 17.4736C106.713 18.5875 106.198 19.5109 105.321 20.238C104.441 20.967 103.306 21.3324 101.912 21.3324C100.432 21.3324 99.2095 20.8814 98.2239 20.0028C97.2383 19.1027 96.7445 18.0529 96.7445 16.8515L98.7371 16.8554ZM110.553 21.1186H108.603V5.66187H110.555V12.6097C110.833 12.0518 111.284 11.6241 111.927 11.3461C112.592 11.0448 113.235 10.8951 113.858 10.8951C116.365 10.8951 117.93 12.5242 117.909 15.3333V21.1225H115.957V15.4616C115.957 13.8325 114.993 12.8041 113.599 12.8041C112.806 12.8041 112.098 13.0393 111.476 13.5331C110.854 14.0055 110.555 14.7345 110.555 15.7201V21.1206L110.553 21.1186ZM120.85 12.3298C121.857 11.3636 123.101 10.8932 124.581 10.8932C126.06 10.8932 127.304 11.3656 128.311 12.3298C129.318 13.294 129.833 14.5382 129.833 16.0817C129.833 17.6272 129.318 18.8908 128.288 19.8764C127.281 20.8426 126.037 21.3344 124.579 21.3344C123.121 21.3344 121.877 20.8406 120.87 19.8764C119.863 18.9122 119.347 17.6466 119.347 16.0817C119.349 14.5382 119.843 13.294 120.85 12.3298ZM126.919 13.7022C126.295 13.1016 125.504 12.8002 124.583 12.8002C123.661 12.8002 122.868 13.1016 122.225 13.7022C121.604 14.301 121.282 15.0961 121.282 16.0817C121.282 17.0887 121.604 17.9052 122.225 18.5253C122.868 19.1474 123.661 19.4468 124.583 19.4468C125.504 19.4468 126.297 19.1454 126.919 18.5253C127.563 17.9032 127.883 17.0887 127.883 16.0817C127.883 15.0961 127.563 14.3029 126.919 13.7022ZM133.401 11.107V12.6719C134.065 11.5561 135.459 10.8932 136.896 10.8932C138.29 10.8932 139.489 11.3869 140.455 12.3512C141.42 13.3154 141.913 14.5809 141.913 16.1459C141.913 17.6913 141.42 18.9335 140.455 19.8978C139.489 20.8639 138.311 21.3344 136.896 21.3344C135.438 21.3344 134.023 20.7356 133.401 19.6198V25.9864H131.451V11.109L133.401 11.107ZM134.408 18.5681C135.037 19.1338 135.856 19.439 136.701 19.4273C138.566 19.4273 139.938 18.119 139.938 16.1672C139.938 15.1816 139.616 14.3652 138.995 13.745C138.375 13.1229 137.623 12.8022 136.701 12.8022C135.78 12.8022 135.008 13.1035 134.365 13.7236C133.745 14.3224 133.422 15.1389 133.422 16.1672C133.422 17.1762 133.743 17.9907 134.408 18.5681Z" fill="#8A8A8A"/>
<path d="M8.42087 9.5266V8.60515C8.11372 8.56238 7.80462 8.53905 7.49553 8.53711C3.71056 8.541 0.642926 11.6106 0.639038 15.3955C0.639038 17.6331 1.73157 19.7287 3.5667 21.0098C3.5356 20.9748 3.50255 20.9398 3.47145 20.9048C2.38864 19.6918 1.76656 18.0919 1.76656 16.3403C1.75489 12.637 4.71561 9.60436 8.42087 9.5266Z" fill="#8A8A8A"/>
<path d="M8.58269 19.4993C10.2759 19.4877 11.662 18.1502 11.7359 16.4589L11.7436 1.55622L14.4497 1.56011L14.4438 1.52706C14.3855 1.21602 14.3564 0.899147 14.3564 0.582275H10.6297L10.6239 15.5141C10.5617 17.1957 9.18144 18.5273 7.49793 18.5293C6.975 18.5293 6.47928 18.399 6.04382 18.1696C6.61342 18.9589 7.53681 19.4993 8.58269 19.4993ZM19.5391 6.65533V5.76692C18.499 5.76692 17.529 5.45783 16.7164 4.92711C17.4396 5.7572 18.4232 6.41622 19.5391 6.65533Z" fill="#8A8A8A"/>
<path d="M16.7142 4.92497C15.8919 3.98407 15.439 2.77685 15.439 1.52686H14.4145C14.6789 2.94598 15.5478 4.16487 16.7142 4.92497ZM7.49579 12.2364C5.75591 12.25 4.3504 13.6574 4.33679 15.3953C4.33679 16.5987 5.0483 17.6426 6.04362 18.1675C5.65871 17.6368 5.4507 16.9972 5.4507 16.3421C5.45265 14.6119 6.85427 13.2122 8.58249 13.2103C8.90325 13.2103 9.21429 13.2647 9.50589 13.3561V9.55363C9.20068 9.51086 8.89158 9.48753 8.58249 9.48559C8.52806 9.48559 8.47557 9.48948 8.42113 9.48948L8.39586 9.49337L8.39392 12.3666C8.10232 12.2752 7.79906 12.2325 7.49579 12.2364Z" fill="#545454"/>
<path d="M19.5387 6.59691L19.5192 6.59302L19.5115 9.46236C17.653 9.46042 15.8412 8.87333 14.3346 7.78469L14.3307 15.3993C14.3365 19.1668 11.2864 22.2247 7.52088 22.2306C7.5131 22.2306 7.50727 22.2306 7.49949 22.2306C6.09593 22.2422 4.72152 21.8165 3.56873 21.0156C4.86343 22.4113 6.68107 23.2045 8.58619 23.2045C12.3712 23.2006 15.4407 20.133 15.4446 16.3461V8.77419C16.9551 9.86088 18.7689 10.4441 20.6293 10.4402V6.7116C20.2521 6.7116 19.8886 6.67078 19.5387 6.59691Z" fill="#545454"/>
<path d="M14.3541 15.3973V7.82347C15.8645 8.91017 17.6783 9.49337 19.5387 9.48948V6.59486C18.4423 6.3577 17.4508 5.77255 16.716 4.92497C15.5263 4.15126 14.704 2.92265 14.4435 1.52686H11.7141L11.7083 16.4587C11.6461 18.1403 10.2658 19.4719 8.58232 19.4739C7.57533 19.4719 6.63054 18.9859 6.04345 18.1675C4.51353 17.3607 3.92449 15.4673 4.73125 13.9354C5.27169 12.909 6.337 12.2655 7.49757 12.2616C7.82027 12.2616 8.13131 12.3141 8.42291 12.4055V9.48559C4.70209 9.57696 1.73166 12.6174 1.72583 16.3382C1.72583 18.1403 2.42762 19.783 3.5668 21.0096C4.71765 21.8183 6.09011 22.2518 7.49757 22.2518C11.2845 22.248 14.3521 19.1803 14.356 15.3934V15.3973H14.3541ZM24.1188 6.29355H35.1529L34.1401 9.4506L31.2785 9.44866V21.1185H27.7113V9.44866L24.1227 9.45449L24.1188 6.29355ZM53.2282 6.29355H64.519L63.5042 9.4506L60.3938 9.44866V21.1185H56.8207V9.44866L53.2321 9.45449L53.2282 6.29355ZM35.8255 11.0097H39.3636L39.3597 21.1224H35.8469L35.8255 11.0097ZM40.7652 6.25078H44.2994V13.1578L47.8006 9.72081H52.0191L47.5887 14.0209L52.5517 21.1224H48.6579L45.3472 16.1982L44.2994 17.2169V21.1243H40.7672L40.7652 6.25078ZM78.2106 6.25078H81.7428V13.1578L85.2459 9.72081H89.4644L85.034 14.0209L89.9951 21.1224H86.1013L82.7906 16.1982L81.7428 17.2169V21.1243H78.2106V6.25078ZM37.5926 9.85495C38.5763 9.85495 39.3733 9.05791 39.3733 8.07619C39.3733 7.09253 38.5763 6.29549 37.5946 6.29549H37.5926C36.609 6.29549 35.8139 7.09253 35.8139 8.07619C35.8139 9.05791 36.6109 9.85301 37.5926 9.85495Z" fill="#8A8A8A"/>
<path d="M64.0656 15.0687C64.0656 11.9097 66.4956 9.28146 69.6449 9.03457C69.468 9.02096 69.2911 9.01514 69.1142 9.01514C65.7705 9.01514 63.0625 11.7251 63.0625 15.0668C63.0625 18.4105 65.7724 21.1185 69.1142 21.1185C69.2755 21.1185 69.4874 21.1107 69.6449 21.099C66.4956 20.8541 64.0656 18.2258 64.0656 15.0687Z" fill="#8A8A8A"/>
<path d="M71.0198 9.01514C70.8585 9.01514 70.6446 9.02485 70.4852 9.03457C73.8172 9.3009 76.3017 12.2169 76.0354 15.5489C75.7982 18.5116 73.4459 20.8619 70.4852 21.099C70.6427 21.1126 70.8585 21.1185 71.0198 21.1185C74.3635 21.1185 77.0715 18.4085 77.0715 15.0668C77.0715 11.7251 74.3616 9.01514 71.0198 9.01514Z" fill="#545454"/>
<path d="M70.0634 9.01514C66.7197 9.01319 64.0098 11.7231 64.0078 15.0649C64.0059 18.4085 66.7158 21.1185 70.0575 21.1204C70.0595 21.1204 70.0614 21.1204 70.0614 21.1204C73.4051 21.1204 76.1131 18.4105 76.1131 15.0688C76.117 11.7251 73.4071 9.01514 70.0634 9.01514ZM70.0634 18.01C68.4382 18.01 67.1202 16.692 67.1202 15.0668C67.1202 13.4416 68.4382 12.1236 70.0634 12.1236C71.6886 12.1236 73.0066 13.4416 73.0066 15.0668C73.0066 16.692 71.6886 18.01 70.0634 18.01Z" fill="#8A8A8A"/>
</g>
<defs>
<clipPath id="clip0_30974_1212">
<rect width="141.274" height="25.4042" fill="white" transform="translate(0.639282 0.582275)"/>
</clipPath>
</defs>
</svg>
