<svg width="75" height="28" viewBox="0 0 75 28" fill="none" xmlns="http://www.w3.org/2000/svg">
<g clip-path="url(#clip0_30974_1185)">
<path fill-rule="evenodd" clip-rule="evenodd" d="M15.2404 8.15161C15.9143 8.15161 16.3861 8.69075 16.2513 9.29728C15.0397 14.6455 15.2254 20.2156 16.7904 25.4714C16.9926 26.0779 16.4535 26.6844 15.8469 26.6844H-0.461921C-1.13584 26.6844 -1.67498 26.0105 -1.4728 25.404C0.144607 19.6756 0.144607 15.6995 -0.933665 9.29728C-1.00106 8.62336 -0.596705 8.219 0.0772148 8.219H0.144607C3.44682 8.55596 5.53597 8.69075 7.69251 8.69075C9.71427 8.69075 11.8708 8.55596 15.1056 8.219H15.2404V8.15161ZM5.13162 12.7343C5.13162 13.1386 4.79466 13.4756 4.32291 13.4756C4.22844 13.4761 4.13493 13.4567 4.04844 13.4187C3.96195 13.3807 3.88442 13.3249 3.82087 13.255C3.75732 13.1851 3.70918 13.1026 3.67957 13.0129C3.64996 12.9232 3.63954 12.8283 3.64899 12.7343C3.63954 12.6403 3.64996 12.5453 3.67957 12.4556C3.70918 12.3659 3.75732 12.2834 3.82087 12.2135C3.88442 12.1436 3.96195 12.0879 4.04844 12.0499C4.13493 12.0119 4.22844 11.9925 4.32291 11.993C4.79466 11.993 5.13162 12.3299 5.13162 12.6669V12.7343ZM10.9273 13.4756C11.3317 13.4756 11.736 13.1386 11.736 12.7343C11.736 12.3299 11.3317 11.993 10.9273 11.993C10.7486 11.993 10.5772 12.064 10.4508 12.1903C10.3244 12.3167 10.2534 12.4881 10.2534 12.6669C10.2332 12.7659 10.2355 12.8683 10.2601 12.9663C10.2848 13.0643 10.3312 13.1556 10.396 13.2332C10.4607 13.3109 10.542 13.373 10.634 13.415C10.726 13.4569 10.8263 13.4776 10.9273 13.4756ZM3.44682 15.2952C3.44682 16.643 4.4577 19.3387 7.62512 19.3387C10.8599 19.3387 11.8708 16.643 11.8708 15.2952C11.8708 15.0256 11.6012 14.756 11.3317 14.756C11.0621 14.756 10.8599 15.0256 10.8599 15.2952C10.8599 16.306 10.0512 18.3952 7.62512 18.3952C7.21238 18.4042 6.80201 18.3306 6.41808 18.1788C6.03416 18.0271 5.68441 17.8002 5.38937 17.5114C5.09433 17.2226 4.85994 16.8778 4.69995 16.4973C4.53996 16.1167 4.4576 15.708 4.4577 15.2952C4.4577 15.0256 4.25552 14.756 3.91856 14.756C3.64899 14.756 3.44682 15.0256 3.44682 15.2952Z" fill="#8A8A8A"/>
<path d="M9.78219 5.38848C10.0646 5.33867 10.3336 5.23126 10.5727 5.07296C10.8118 4.91465 11.0157 4.70883 11.1718 4.4683C11.3278 4.22778 11.4327 3.9577 11.4799 3.67489C11.5271 3.39207 11.5156 3.10257 11.446 2.8244C11.3765 2.54624 11.2504 2.28536 11.0757 2.05802C10.901 1.83068 10.6813 1.64174 10.4304 1.50296C10.1795 1.36418 9.90274 1.27854 9.6173 1.25135C9.33187 1.22417 9.0439 1.25603 8.77131 1.34496C8.48894 1.39477 8.21985 1.50217 7.98079 1.66048C7.74173 1.81879 7.53782 2.02461 7.38174 2.26513C7.22566 2.50566 7.12077 2.77574 7.07359 3.05855C7.0264 3.34137 7.03794 3.63087 7.10748 3.90904C7.17702 4.1872 7.30308 4.44807 7.4778 4.67541C7.65252 4.90275 7.87217 5.09169 8.12307 5.23047C8.37398 5.36925 8.65076 5.4549 8.93619 5.48208C9.22163 5.50927 9.5096 5.4774 9.78219 5.38848Z" fill="#8A8A8A"/>
<path d="M14.3643 7.54502V5.38847C14.4316 4.71455 13.6903 4.24281 13.0164 4.64716L9.10768 7.20806C8.83811 7.34284 8.63593 7.61241 8.56854 7.88198C10.186 7.88198 11.9381 7.74719 14.3643 7.54502Z" fill="#8A8A8A"/>
<path d="M1.08831 7.54503C3.71659 7.8146 5.67096 7.94938 7.62533 7.94938L6.68184 4.84935C6.58967 4.58327 6.39706 4.3638 6.14519 4.23786C5.89332 4.11193 5.60218 4.08952 5.334 4.17543L1.49266 5.18631C0.88613 5.3211 0.54917 5.99502 0.818738 6.53415L1.02091 7.47764L1.08831 7.54503Z" fill="#8A8A8A"/>
<path d="M61.4042 17.4518C60.9894 16.2784 60.2238 15.2611 59.2111 14.5377C58.1984 13.8144 56.9877 13.42 55.7433 13.4082C55.2725 13.4082 54.8081 13.5178 54.387 13.7284C53.9659 13.9389 53.5996 14.2446 53.3172 14.6213C52.7106 15.2952 52.6432 16.4409 52.778 17.317V17.5865L53.0476 17.3844C53.2498 17.1822 53.7215 16.9126 54.2606 16.7778H55.2041C55.9454 16.8452 56.6194 17.1822 57.1585 17.7213C57.8324 18.3952 58.102 19.2713 58.102 20.2822C58.102 21.3605 57.765 22.1692 57.1585 22.8431C56.4846 23.517 55.6759 23.7866 54.665 23.7866C54.2182 23.7981 53.7737 23.7206 53.3571 23.5586C52.9406 23.3966 52.5605 23.1534 52.2389 22.8431C51.228 21.8322 51.3628 19.8779 51.3628 19.8779V8.21905L51.228 8.08427L50.8236 8.01687C50.4867 7.88209 50.0823 7.8147 49.6106 7.8147C49.0041 7.8147 48.5323 7.94948 48.1954 8.21905C47.8584 8.42123 47.7236 8.82558 47.7236 9.36471V19.6757C47.7236 20.754 47.8584 21.6974 48.0606 22.5062C48.2627 23.3149 48.5997 23.9888 49.0041 24.5279C49.678 25.3366 50.4193 25.9431 51.4302 26.4149C53.4031 27.2534 55.6228 27.3016 57.6302 26.5497C58.4592 26.258 59.2176 25.7953 59.8562 25.1916C60.4947 24.5879 60.9992 23.8566 61.3368 23.0453C61.6738 22.2366 61.8085 21.2931 61.8085 20.2822C61.8085 19.2039 61.6738 18.2605 61.3368 17.4518H61.4042ZM39.5018 8.01687L38.2887 7.8147C37.6148 7.8147 37.2105 7.94948 36.8061 8.21905C36.5365 8.42123 36.3344 8.82558 36.3344 9.36471V26.6845H39.9735V8.21905L39.5018 8.08427V8.01687ZM43.9497 11.8582C44.2251 11.8635 44.4987 11.8124 44.7536 11.7081C45.0086 11.6038 45.2395 11.4485 45.4323 11.2517C45.8366 10.9147 46.0388 10.443 46.0388 9.90385C46.0388 9.36765 45.8258 8.8534 45.4467 8.47425C45.0675 8.0951 44.5533 7.88209 44.017 7.88209C43.4105 7.88209 42.9388 8.01687 42.5344 8.42123C42.1781 8.8053 41.9849 9.31268 41.9953 9.83646C41.9953 10.443 42.1301 10.9147 42.5344 11.2517C42.9077 11.6326 43.4164 11.8506 43.9497 11.8582ZM44.0844 13.8126C43.4779 13.8126 43.0062 13.9474 42.6692 14.2169C42.3323 14.4191 42.1975 14.8235 42.1975 15.43V26.6845H45.8366V14.1495L45.2975 14.0148C44.9605 13.88 44.5562 13.8126 44.0844 13.8126ZM66.5934 8.01687C66.2564 7.88209 65.8521 7.8147 65.3803 7.8147C64.7738 7.8147 64.302 7.94948 63.9651 8.21905C63.6281 8.42123 63.4933 8.82558 63.4933 9.36471V26.6845H67.1325V8.21905L66.5934 8.08427V8.01687ZM71.0412 11.8582C71.5745 11.8506 72.0832 11.6326 72.4565 11.2517C72.8608 10.9147 73.063 10.443 73.063 9.90385C73.063 9.36765 72.85 8.8534 72.4708 8.47425C72.0917 8.0951 71.5775 7.88209 71.0412 7.88209C70.4347 7.88209 69.963 8.01687 69.5586 8.42123C69.2023 8.8053 69.0091 9.31268 69.0195 9.83646C69.0195 10.443 69.2217 10.9147 69.5586 11.2517C69.7514 11.4485 69.9823 11.6038 70.2373 11.7081C70.4923 11.8124 70.7658 11.8635 71.0412 11.8582ZM71.1086 13.8126C70.5021 13.8126 70.0304 13.9474 69.6934 14.2169C69.3564 14.4191 69.2217 14.8235 69.2217 15.43V26.6845H72.8608V14.1495L72.3217 14.0148C71.9847 13.88 71.5804 13.8126 71.1086 13.8126ZM34.1778 17.4518C33.763 16.2784 32.9974 15.2611 31.9847 14.5377C30.972 13.8144 29.7613 13.42 28.5169 13.4082C28.0575 13.4185 27.6065 13.5331 27.1979 13.7432C26.7893 13.9534 26.4337 14.2536 26.1582 14.6213C25.4843 15.2952 25.4843 16.4409 25.619 17.317V17.5865L25.8886 17.3844C26.0908 17.1822 26.5625 16.9126 27.1017 16.7778H28.0451C28.7865 16.8452 29.393 17.1822 29.9995 17.7213C30.606 18.3952 30.943 19.2713 30.943 20.2822C30.943 21.3605 30.606 22.1692 29.9321 22.8431C29.2582 23.517 28.5169 23.7192 27.506 23.7192C27.0593 23.7307 26.6147 23.6532 26.1982 23.4912C25.7817 23.3292 25.4015 23.086 25.0799 22.7757C24.069 21.7648 24.1364 19.8105 24.1364 19.8105V8.21905L24.069 8.08427L23.6647 8.01687C23.3277 7.88209 22.9234 7.8147 22.4516 7.8147C21.8451 7.8147 21.3733 7.94948 21.0364 8.21905C20.6994 8.42123 20.5646 8.82558 20.5646 9.36471V19.6757C20.5646 20.754 20.632 21.6974 20.9016 22.5062C21.1038 23.3149 21.4407 23.9888 21.7777 24.5279C22.4516 25.3366 23.2603 25.9431 24.2712 26.4149C26.2244 27.2356 28.4165 27.2838 30.4039 26.5497C31.2328 26.258 31.9912 25.7953 32.6298 25.1916C33.2683 24.5879 33.7728 23.8566 34.1104 23.0453C34.5148 22.2366 34.6496 21.2931 34.6496 20.2822C34.6496 19.2039 34.5148 18.2605 34.1778 17.4518Z" fill="#8A8A8A"/>
</g>
<defs>
<clipPath id="clip0_30974_1185">
<rect width="76.8269" height="26.9568" fill="white" transform="translate(-2.61798 0.805908)"/>
</clipPath>
</defs>
</svg>
