<svg width="24" height="24" viewBox="0 0 24 24" fill="none" xmlns="http://www.w3.org/2000/svg">
<path fill-rule="evenodd" clip-rule="evenodd" d="M11.293 15.707C11.4806 15.8944 11.7349 15.9998 12 15.9998C12.2652 15.9998 12.5195 15.8944 12.707 15.707L18.364 10.05C18.4595 9.95773 18.5357 9.84739 18.5881 9.72538C18.6405 9.60338 18.6681 9.47216 18.6693 9.33938C18.6704 9.2066 18.6451 9.07492 18.5948 8.95202C18.5446 8.82913 18.4703 8.71747 18.3764 8.62358C18.2825 8.52969 18.1709 8.45544 18.048 8.40515C17.9251 8.35487 17.7934 8.32957 17.6606 8.33073C17.5278 8.33188 17.3966 8.35947 17.2746 8.41188C17.1526 8.46428 17.0423 8.54047 16.95 8.63598L12 13.586L7.05002 8.63598C6.86142 8.45382 6.60882 8.35303 6.34662 8.3553C6.08443 8.35758 5.83361 8.46275 5.6482 8.64816C5.4628 8.83357 5.35763 9.08438 5.35535 9.34658C5.35307 9.60877 5.45386 9.86138 5.63602 10.05L11.293 15.707Z" fill="#111336"/>
</svg>
