<svg width="13" height="14" viewBox="0 0 13 14" fill="none" xmlns="http://www.w3.org/2000/svg">
<path d="M9.75002 2.66663C9.83157 2.66663 9.91207 2.68504 9.9855 2.72049C10.0589 2.75595 10.1234 2.80752 10.1741 2.87138L10.2142 2.92988L11.8392 5.63821C11.8925 5.72702 11.9191 5.82922 11.916 5.9327C11.913 6.03619 11.8803 6.13663 11.8219 6.22213L11.7786 6.27792L7.15815 11.4416C7.07236 11.5292 6.96995 11.5987 6.85694 11.6461C6.74393 11.6935 6.62259 11.7179 6.50002 11.7179C6.28336 11.7179 6.07482 11.642 5.89877 11.492L5.82565 11.4238L1.22148 6.27792C1.15222 6.20063 1.10661 6.10507 1.09009 6.00261C1.07358 5.90015 1.08684 5.7951 1.12832 5.69996L1.16082 5.63767L2.79286 2.91742L2.82752 2.86867C2.85232 2.83783 2.88048 2.80985 2.91148 2.78525L2.95969 2.75058L3.00736 2.7235L3.03444 2.71104L3.06694 2.6975L3.12598 2.68017L3.18665 2.66933L3.25002 2.66663H9.75002ZM4.93677 4.80242C4.81363 4.72868 4.66626 4.70682 4.52702 4.74166C4.38778 4.77649 4.26806 4.86517 4.19415 4.98821L3.86915 5.52988L3.83665 5.59271C3.79519 5.6883 3.78219 5.79383 3.79919 5.89663C3.8162 5.99943 3.86249 6.09514 3.93252 6.17229L5.01586 7.36396L5.06461 7.41163C5.16488 7.49743 5.29302 7.54367 5.42497 7.54168C5.55692 7.53968 5.68361 7.48958 5.78123 7.40079L5.82836 7.35204C5.91416 7.25178 5.9604 7.12363 5.95841 6.99168C5.95641 6.85973 5.90632 6.73305 5.81752 6.63542L5.00448 5.74167L5.12257 5.54504L5.15236 5.48925C5.20679 5.36823 5.21491 5.23145 5.17517 5.10484C5.13543 4.97824 5.0506 4.87062 4.93677 4.80242Z" fill="#703BE7"/>
<path d="M9.75002 2.66663C9.83157 2.66663 9.91207 2.68504 9.9855 2.72049C10.0589 2.75595 10.1234 2.80752 10.1741 2.87138L10.2142 2.92988L11.8392 5.63821C11.8925 5.72702 11.9191 5.82922 11.916 5.9327C11.913 6.03619 11.8803 6.13663 11.8219 6.22213L11.7786 6.27792L7.15815 11.4416C7.07236 11.5292 6.96995 11.5987 6.85694 11.6461C6.74393 11.6935 6.62259 11.7179 6.50002 11.7179C6.28336 11.7179 6.07482 11.642 5.89877 11.492L5.82565 11.4238L1.22148 6.27792C1.15222 6.20063 1.10661 6.10507 1.09009 6.00261C1.07358 5.90015 1.08684 5.7951 1.12832 5.69996L1.16082 5.63767L2.79286 2.91742L2.82752 2.86867C2.85232 2.83783 2.88048 2.80985 2.91148 2.78525L2.95969 2.75058L3.00736 2.7235L3.03444 2.71104L3.06694 2.6975L3.12598 2.68017L3.18665 2.66933L3.25002 2.66663H9.75002ZM4.93677 4.80242C4.81363 4.72868 4.66626 4.70682 4.52702 4.74166C4.38778 4.77649 4.26806 4.86517 4.19415 4.98821L3.86915 5.52988L3.83665 5.59271C3.79519 5.6883 3.78219 5.79383 3.79919 5.89663C3.8162 5.99943 3.86249 6.09514 3.93252 6.17229L5.01586 7.36396L5.06461 7.41163C5.16488 7.49743 5.29302 7.54367 5.42497 7.54168C5.55692 7.53968 5.68361 7.48958 5.78123 7.40079L5.82836 7.35204C5.91416 7.25178 5.9604 7.12363 5.95841 6.99168C5.95641 6.85973 5.90632 6.73305 5.81752 6.63542L5.00448 5.74167L5.12257 5.54504L5.15236 5.48925C5.20679 5.36823 5.21491 5.23145 5.17517 5.10484C5.13543 4.97824 5.0506 4.87062 4.93677 4.80242Z" fill="url(#paint0_linear_30974_285)" fill-opacity="0.34"/>
<defs>
<linearGradient id="paint0_linear_30974_285" x1="6.49973" y1="2.66663" x2="6.49973" y2="11.7179" gradientUnits="userSpaceOnUse">
<stop stop-color="white"/>
<stop offset="1" stop-color="white" stop-opacity="0"/>
</linearGradient>
</defs>
</svg>
