<svg width="48" height="48" viewBox="0 0 48 48" fill="none" xmlns="http://www.w3.org/2000/svg">
<path d="M48 24C48 37.2548 37.2548 48 24 48C10.7452 48 0 37.2548 0 24C0 10.7452 10.7452 0 24 0C37.2548 0 48 10.7452 48 24ZM4.8 24C4.8 34.6039 13.3961 43.2 24 43.2C34.6039 43.2 43.2 34.6039 43.2 24C43.2 13.3961 34.6039 4.8 24 4.8C13.3961 4.8 4.8 13.3961 4.8 24Z" fill="white" fill-opacity="0.5"/>
<path d="M45.6023 24.0001C46.9277 24.0001 48.0147 25.0773 47.8824 26.3961C47.6486 28.7259 47.0747 31.0133 46.1754 33.1845C44.9693 36.0963 43.2014 38.7421 40.9728 40.9707C38.7442 43.1993 36.0985 44.9671 33.1867 46.1732C31.0155 47.0726 28.7281 47.6465 26.3983 47.8802C25.0794 48.0126 24.0023 46.9256 24.0023 45.6001V45.6001C24.0023 44.2746 25.0809 43.2156 26.396 43.0503C28.0949 42.8368 29.7612 42.3966 31.3498 41.7386C33.6792 40.7737 35.7958 39.3595 37.5787 37.5766C39.3616 35.7937 40.7759 33.6771 41.7407 31.3476C42.3987 29.7591 42.839 28.0928 43.0525 26.3939C43.2177 25.0788 44.2768 24.0001 45.6023 24.0001V24.0001Z" fill="currentColor"/>
</svg>
