<svg width="25" height="25" viewBox="0 0 25 25" fill="none" xmlns="http://www.w3.org/2000/svg">
<g clip-path="url(#clip0_30974_1358)">
<path d="M2 12.5C2 14.5767 2.61581 16.6068 3.76957 18.3335C4.92332 20.0602 6.5632 21.406 8.48182 22.2007C10.4004 22.9955 12.5116 23.2034 14.5484 22.7982C16.5852 22.3931 18.4562 21.3931 19.9246 19.9246C21.3931 18.4562 22.3931 16.5852 22.7982 14.5484C23.2034 12.5116 22.9955 10.4004 22.2007 8.48182C21.406 6.5632 20.0602 4.92332 18.3335 3.76957C16.6068 2.61581 14.5767 2 12.5 2C9.71523 2 7.04451 3.10625 5.07538 5.07538C3.10625 7.04451 2 9.71523 2 12.5ZM6.5 11.75H15.6125L11.4275 7.54445L12.5 6.5L18.5 12.5L12.5 18.5L11.4275 17.4296L15.6125 13.25H6.5V11.75Z" fill="white"/>
</g>
<defs>
<clipPath id="clip0_30974_1358">
<rect width="24" height="24" fill="white" transform="translate(0.5 0.5)"/>
</clipPath>
</defs>
</svg>
