<svg width="110" height="36" viewBox="0 0 110 36" fill="none" xmlns="http://www.w3.org/2000/svg">
<g clip-path="url(#clip0_30974_1193)">
<path fill-rule="evenodd" clip-rule="evenodd" d="M20.2698 25.4466C20.0788 27.0228 19.1237 28.2852 17.6442 28.9174C16.8203 29.2695 15.7141 29.4596 14.8384 29.3999C13.4724 29.3477 12.1891 29.0155 11.0062 28.4082C10.5836 28.1912 9.95363 27.7578 9.4699 27.3518C9.34738 27.2493 9.33283 27.1835 9.4139 27.0685C9.45767 27.0025 9.53838 26.8834 9.71678 26.6221C9.97552 26.2429 10.0078 26.1954 10.0369 26.151C10.1197 26.0239 10.2542 26.0128 10.3869 26.1172C10.4008 26.1281 10.4008 26.1281 10.4113 26.1363C10.4331 26.1532 10.4331 26.1532 10.4844 26.1931C10.5364 26.2336 10.5672 26.2575 10.5797 26.2668C11.8554 27.266 13.3412 27.8422 14.8412 27.8999C16.9282 27.8714 18.4289 26.9331 18.6978 25.4922C18.9934 23.9065 17.7486 22.5367 15.3132 21.7732C14.5515 21.5345 12.6263 20.7638 12.2713 20.5556C10.6043 19.5775 9.82487 18.2964 9.93566 16.7139C10.1054 14.5204 12.1417 12.8845 14.7147 12.8735C15.8653 12.8711 17.0135 13.1103 18.1166 13.5751C18.5071 13.7397 19.2045 14.1192 19.4453 14.2989C19.5839 14.4008 19.6113 14.5195 19.5318 14.6475C19.4874 14.7218 19.4141 14.8395 19.2594 15.0849L19.2577 15.0875C19.0541 15.4108 19.0477 15.4208 19.001 15.4964C18.9203 15.6193 18.8254 15.6308 18.6799 15.5384C17.4996 14.7455 16.1911 14.3466 14.752 14.3178C12.9603 14.3532 11.6175 15.4195 11.5292 16.872C11.5057 18.1839 12.4897 19.1417 14.6151 19.872C18.9295 21.2584 20.5805 22.8838 20.2698 25.4466ZM14.9416 2.79879C17.7505 2.79879 20.04 5.46436 20.1471 8.80108H9.73622C9.84334 5.46436 12.1329 2.79879 14.9416 2.79879ZM29.4783 9.42841C29.4783 9.08194 29.1993 8.80108 28.8552 8.80108H22.1071C21.9416 4.39537 18.7968 0.882324 14.9416 0.882324C11.0865 0.882324 7.94179 4.39537 7.77622 8.80108L1.0185 8.80121C0.679669 8.80737 0.406866 9.08588 0.406866 9.42841C0.406866 9.44479 0.407479 9.46104 0.408699 9.47705H0.403931L1.36724 30.7121C1.36736 30.7712 1.36956 30.8308 1.37397 30.8907C1.37495 30.9043 1.37605 30.9177 1.37715 30.9311L1.37923 30.9759L1.38155 30.9783C1.52791 32.4559 2.6003 33.6461 4.05847 33.701L4.06177 33.7042H25.4978C25.5079 33.7043 25.5181 33.7044 25.5282 33.7044C25.5384 33.7044 25.5485 33.7043 25.5587 33.7042H25.6043L25.6053 33.7033C27.0889 33.6628 28.2906 32.456 28.4176 30.9602L28.4183 30.9594L28.4193 30.9394C28.4205 30.9236 28.4216 30.908 28.4226 30.8922C28.4249 30.8545 28.4265 30.817 28.4271 30.7797L29.4782 9.46081H29.4775C29.4781 9.45009 29.4783 9.43925 29.4783 9.42841ZM100.94 23.2682C101.353 21.921 102.602 21.0229 104.059 21.0229C105.45 21.0229 106.775 21.9676 107.232 23.2657L107.264 23.3549H100.914L100.94 23.2682ZM108.677 25.22C108.685 25.2203 108.685 25.2203 108.698 25.2204C108.711 25.2203 108.711 25.2203 108.723 25.22C109.027 25.206 109.268 24.9468 109.268 24.6314C109.268 24.6161 109.268 24.6029 109.266 24.5818C109.267 24.5779 109.267 24.5702 109.267 24.5454C109.267 21.5702 106.934 19.1591 104.057 19.1591C101.181 19.1591 98.8485 21.5702 98.8485 24.5454C98.8485 24.7672 98.8613 24.9884 98.8873 25.2082L98.889 25.22L98.8971 25.278C99.0404 26.3485 99.4971 27.3311 100.219 28.1261C100.218 28.1258 100.219 28.1265 100.223 28.1307C101.022 29.0109 102.108 29.6108 103.313 29.8352L103.329 29.8382V29.8366L103.407 29.8497C103.447 29.8565 103.49 29.8632 103.546 29.872C105.132 30.0627 106.538 29.8342 107.729 29.2345C108.022 29.0868 108.286 28.9237 108.514 28.7515C108.588 28.6961 108.654 28.6424 108.711 28.5922C108.74 28.5663 108.764 28.5445 108.776 28.5319C109.045 28.2551 109.062 28.157 108.9 27.9043C108.721 27.6203 108.564 27.3783 108.429 27.178C108.382 27.1079 108.341 27.0481 108.306 26.9985C108.287 26.9713 108.287 26.9713 108.275 26.954C108.27 26.9473 108.27 26.9473 108.267 26.943L108.265 26.9408C108.118 26.7582 108.018 26.7414 107.855 26.8852C107.838 26.9006 107.779 26.9455 107.769 26.9566C106.623 27.9738 105.059 28.3011 103.497 27.9742C103.206 27.8961 102.934 27.7969 102.683 27.6771C101.705 27.1864 101.011 26.312 100.811 25.2999L100.795 25.2199L108.677 25.22ZM88.5449 23.2682C88.9579 21.921 90.2067 21.0229 91.6639 21.0229C93.0549 21.0229 94.3793 21.9676 94.8369 23.2657L94.8682 23.3549H88.5182L88.5449 23.2682ZM96.2814 25.22C96.29 25.2203 96.29 25.2203 96.3027 25.2204C96.3151 25.2203 96.3151 25.2203 96.328 25.22C96.632 25.206 96.8726 24.9468 96.8726 24.6314C96.8726 24.6161 96.8721 24.6029 96.8709 24.5818C96.8712 24.5779 96.8712 24.5702 96.8712 24.5454C96.8712 21.5702 94.5388 19.1591 91.6621 19.1591C88.7857 19.1591 86.453 21.5702 86.453 24.5454C86.453 24.7672 86.4661 24.9884 86.492 25.2082L86.4937 25.22L86.5018 25.278C86.6451 26.3485 87.1018 27.3311 87.8232 28.1261C87.8229 28.1258 87.8236 28.1265 87.8272 28.1307C88.6271 29.0109 89.7131 29.6108 90.9176 29.8352L90.9333 29.8382V29.8366L91.0116 29.8497C91.0518 29.8565 91.0942 29.8632 91.1511 29.872C92.7365 30.0627 94.1427 29.8342 95.3334 29.2345C95.6266 29.0868 95.8902 28.9237 96.1187 28.7515C96.1921 28.6961 96.2583 28.6424 96.3155 28.5922C96.3449 28.5663 96.3684 28.5445 96.3809 28.5319C96.6495 28.2551 96.6663 28.157 96.5042 27.9043C96.3257 27.6203 96.1683 27.3783 96.0333 27.178C95.9862 27.1079 95.9451 27.0481 95.9106 26.9985C95.8914 26.9713 95.8914 26.9713 95.8793 26.954C95.8748 26.9473 95.8748 26.9473 95.8714 26.943L95.8702 26.9408C95.7233 26.7582 95.6228 26.7414 95.4599 26.8852C95.4426 26.9006 95.3845 26.9455 95.374 26.9566C94.2286 27.9738 92.6642 28.3011 91.1021 27.9742C90.8112 27.8961 90.5391 27.7969 90.2885 27.6771C89.3098 27.1864 88.6165 26.312 88.4164 25.2999L88.4006 25.2199L96.2814 25.22ZM79.0849 28.1865C77.1475 28.1865 75.5629 26.6505 75.5143 24.7255V24.5444C75.5624 22.6225 77.1475 21.0862 79.0849 21.0862C81.0573 21.0862 82.6563 22.6757 82.6563 24.6364C82.6563 26.5971 81.0573 28.1865 79.0849 28.1865ZM79.086 19.2029C77.8153 19.2029 76.6011 19.6357 75.6253 20.4295L75.5145 20.5196V19.5261C75.5145 19.2612 75.4575 19.2029 75.1893 19.2029H73.9423C73.6706 19.2029 73.6171 19.2569 73.6171 19.5261V35.363C73.6171 35.6232 73.6777 35.6863 73.9423 35.6863H75.1893C75.4549 35.6863 75.5145 35.6245 75.5145 35.363V28.7586L75.6253 28.8487C76.6013 29.6426 77.8154 30.0754 79.086 30.0754C82.1064 30.0754 84.5548 27.6415 84.5548 24.6391C84.5548 21.6368 82.1064 19.2029 79.086 19.2029ZM66.2426 28.0652C64.2662 28.0652 62.664 26.4897 62.664 24.5457C62.664 22.6017 64.2663 21.0261 66.2426 21.0261C68.2187 21.0261 69.821 22.6017 69.821 24.5457C69.821 26.4896 68.2188 28.0652 66.2426 28.0652ZM66.2438 19.1591C63.2174 19.1591 60.7645 21.572 60.7645 24.5484C60.7645 27.5246 63.2174 29.9377 66.2438 29.9377C69.27 29.9377 71.7227 27.5246 71.7227 24.5484C71.7227 21.572 69.2701 19.1591 66.2438 19.1591ZM54.0294 19.2788C52.9247 19.2788 51.8556 19.6339 50.9688 20.2904L50.8609 20.3702V13.0152C50.8609 12.7715 50.7809 12.6919 50.5372 12.6919H49.2318C48.9682 12.6919 48.908 12.7549 48.908 13.0152V29.7937C48.908 30.0477 48.973 30.1173 49.2318 30.1173H50.5372C50.7793 30.1173 50.8609 30.0338 50.8609 29.7937V24.3134C50.8745 22.5882 52.2894 21.1957 54.0294 21.1957C55.7739 21.1957 57.1904 22.5949 57.1978 24.3258V29.7937C57.1978 30.0713 57.244 30.1172 57.5216 30.1172H58.8238C59.0998 30.1172 59.1477 30.0699 59.1477 29.7937V24.3098C59.1373 21.5435 56.8306 19.2788 54.0294 19.2788ZM35.84 27.0738L35.8369 27.0785C35.6508 27.3605 35.5728 27.4791 35.5293 27.5472C35.3825 27.7656 35.4008 27.863 35.6249 28.0524C36.1478 28.474 36.82 28.9167 37.2735 29.1385C38.5354 29.7555 39.8983 30.0816 41.3426 30.1111C42.2757 30.1582 43.4474 29.9363 44.32 29.5472C45.8997 28.8425 46.9059 27.469 47.0822 25.7773C47.3679 23.0362 45.5843 21.3226 40.9903 19.9417L40.9891 19.9413C38.8487 19.251 37.8432 18.3333 37.8429 17.052C37.9059 15.6359 39.2189 14.578 40.9903 14.512C42.4173 14.5155 43.6789 14.8945 44.9185 15.6922C45.1799 15.8508 45.3004 15.8215 45.4761 15.5935C45.4963 15.5598 45.5525 15.4782 45.7875 15.1408L45.7882 15.1397C46.0076 14.8246 46.0798 14.7194 46.0978 14.6883C46.2459 14.4096 46.2247 14.3022 45.9575 14.1126C45.6942 13.9241 44.9527 13.5383 44.5287 13.369C43.3493 12.8985 42.1301 12.67 40.9166 12.6936C38.1549 12.7536 36.0012 14.5496 35.8592 16.9058C35.7692 18.6077 36.6329 19.9762 38.4376 20.9879C38.9436 21.255 40.7934 21.9543 41.6568 22.2071C44.1119 22.9261 45.3918 24.2486 45.1274 25.8091C44.8871 27.2268 43.4017 28.1697 41.3172 28.2342C39.8056 28.2027 38.2826 27.6487 36.9602 26.655C36.9536 26.6502 36.92 26.6252 36.8582 26.5791C36.7713 26.5143 36.7713 26.5143 36.7584 26.5046C36.4888 26.3185 36.3302 26.334 36.1656 26.5792C36.1457 26.6096 35.9409 26.9209 35.84 27.0738Z" fill="#8A8A8A"/>
</g>
<defs>
<clipPath id="clip0_30974_1193">
<rect width="108.864" height="34.804" fill="white" transform="translate(0.403931 0.882324)"/>
</clipPath>
</defs>
</svg>
