<svg width="24" height="24" viewBox="0 0 24 24" fill="none" xmlns="http://www.w3.org/2000/svg">
<g clip-path="url(#clip0_30974_591)">
<path d="M11.8731 22.632L6.73027 23.0777L7.17598 17.9348L17.8731 7.30628C18.0328 7.143 18.2234 7.01326 18.4339 6.92469C18.6444 6.83612 18.8705 6.79049 19.0988 6.79049C19.3272 6.79049 19.5533 6.83612 19.7637 6.92469C19.9742 7.01326 20.1649 7.143 20.3246 7.30628L22.5017 9.50056C22.6624 9.65993 22.7899 9.84953 22.8769 10.0584C22.964 10.2673 23.0088 10.4914 23.0088 10.7177C23.0088 10.944 22.964 11.1681 22.8769 11.377C22.7899 11.5859 22.6624 11.7755 22.5017 11.9348L11.8731 22.632ZM1.44341 6.80913C0.841698 6.70456 0.841698 5.84056 1.44341 5.73599C2.50845 5.5497 3.49404 5.05091 4.27488 4.30305C5.05571 3.55518 5.59652 2.59201 5.82856 1.53599L5.86456 1.36971C5.99484 0.776563 6.8417 0.77142 6.97884 1.36628L7.0217 1.55828C7.26073 2.61029 7.80559 3.5681 8.58771 4.31117C9.36983 5.05425 10.3543 5.54938 11.4171 5.73428C12.0223 5.83713 12.0223 6.70628 11.4171 6.81256C10.3542 6.99703 9.36953 7.49177 8.5871 8.23454C7.80468 8.97731 7.25943 9.93492 7.01998 10.9868L6.97541 11.1806C6.83998 11.7737 5.99313 11.7703 5.86284 11.1754L5.82856 11.0091C5.59629 9.95265 5.05497 8.98914 4.27347 8.24123C3.49198 7.49332 2.50565 6.9948 1.43998 6.80913H1.44341Z" stroke="black" stroke-width="1.5" stroke-linecap="round" stroke-linejoin="round"/>
</g>
<defs>
<clipPath id="clip0_30974_591">
<rect width="24" height="24" fill="white"/>
</clipPath>
</defs>
</svg>
