<svg width="119" height="27" viewBox="0 0 119 27" fill="none" xmlns="http://www.w3.org/2000/svg">
<g clip-path="url(#clip0_30974_1191)">
<path fill-rule="evenodd" clip-rule="evenodd" d="M63.4141 18.4553C62.1296 19.7605 60.5928 20.4165 58.8134 20.4165C57.3731 20.4165 56.1492 20.1225 54.9011 19.3959V16.4026C55.9061 17.0849 57.1684 17.7346 58.4144 17.7346C61.0124 17.7346 62.5572 15.9446 62.5572 13.4087C62.5572 10.8699 60.958 9.0266 58.3583 9.0266C57.1976 9.0266 56.2568 9.44442 55.5219 10.2818C54.7341 11.189 54.327 12.4856 54.327 14.2V26.0136H54.1312C52.6993 26.0136 51.5395 24.8518 51.5395 23.4186V13.7562C51.5395 9.65481 54.0429 6.34534 58.3446 6.34534C60.4692 6.34534 62.1948 7.07283 63.5038 8.53402C64.7339 9.89947 65.3435 11.6307 65.3435 13.711C65.3435 15.5637 64.7002 17.1475 63.4149 18.4536L63.4141 18.4553ZM93.5834 18.3552C92.304 19.7304 90.6572 20.4166 88.6606 20.4166C86.5532 20.4166 84.837 19.6891 83.528 18.2279C82.2985 16.8456 81.6886 15.1134 81.6886 13.0509C81.6886 9.39871 84.504 6.34632 88.21 6.34632C89.639 6.34632 90.8797 6.6483 92.1341 7.33679V10.3596C91.1291 9.67735 89.8671 9.02757 88.6207 9.02757C86.0228 9.02757 84.475 10.8173 84.475 13.3565C84.475 15.8596 86.1117 17.7386 88.6739 17.7386C89.8337 17.7386 90.7887 17.3033 91.5526 16.4269C92.3117 15.5558 92.7061 14.276 92.7061 12.556V3.15357C92.7061 1.71986 93.8668 0.558594 95.2979 0.558594H95.4936V12.9986C95.4936 15.1894 94.8604 16.9818 93.5824 18.3588L93.5834 18.3552ZM101.455 5.01987C101.163 5.34786 100.743 5.49886 100.232 5.49886C99.2748 5.49886 98.5899 4.79235 98.5899 3.84146C98.5899 2.86842 99.2618 2.21155 100.232 2.21155C101.165 2.21155 101.873 2.90418 101.873 3.84146C101.873 4.30509 101.738 4.70252 101.455 5.01987ZM115.618 12.5548C115.618 11.4544 115.202 10.5836 114.367 9.92349C113.615 9.32956 112.675 9.02757 111.532 9.02757C109.008 9.02757 107.389 11.0023 107.389 13.4363C107.389 15.7798 109.106 17.7356 111.505 17.7356C113.174 17.7356 114.066 16.7596 115.018 15.5437V19.0482C114.534 19.4119 113.976 19.8085 113.407 20.0413C112.806 20.2924 112.088 20.4145 111.26 20.4145C107.247 20.4145 104.602 17.0873 104.602 13.243C104.602 11.2686 105.215 9.6351 106.448 8.3645C107.757 7.0156 109.474 6.34661 111.575 6.34661C115.558 6.34661 118.409 8.63694 118.409 12.7764V20.1429H118.214C116.782 20.1429 115.621 18.9811 115.621 17.5477L115.618 12.5548ZM77.4705 11.7644C77.1182 10.6734 76.6768 10.1368 75.6609 9.56891C73.2453 8.21735 70.8681 9.36801 69.763 11.7537L77.4705 11.7644ZM75.3436 20.3749C73.5629 20.7537 71.8154 20.4617 70.1105 19.5076C68.4474 18.578 67.3341 17.1955 66.7774 15.3679C65.6489 11.6743 67.9605 7.55516 71.6795 6.55936C73.5225 6.06531 75.2904 6.28893 76.9687 7.22805C79.757 8.78882 80.7746 11.2024 80.5944 14.3139L69.3629 14.2914C69.5284 15.5599 70.3138 16.5525 71.418 17.1697C72.5373 17.7959 73.5665 17.9457 74.5206 17.649C75.5811 17.3157 76.441 16.4493 77.1404 15.6429L79.4293 17.3124C78.4958 18.9849 77.2249 19.9748 75.3427 20.3767L75.3436 20.3749ZM98.8496 6.62289H101.637V20.1415H101.441C100.01 20.1415 98.8497 18.9796 98.8497 17.5462L98.8496 6.62289ZM4.29346 20.1415C1.56699 20.1415 0.212769 18.2846 0.212769 15.6914V5.85462C0.212769 4.42121 1.37345 3.25965 2.80508 3.25965H3.00082V6.62526H7.7109V9.30592H3.00082V16.0046C3.00082 17.1434 3.50846 17.4635 4.59527 17.4635H7.70971V20.1438L4.29346 20.1415ZM20.4832 18.433C19.1063 19.755 17.4515 20.4172 15.5279 20.4172C13.6229 20.4172 11.9761 19.7541 10.5992 18.433C9.21747 17.1062 8.52869 15.419 8.52869 13.3831C8.52869 9.41171 11.5574 6.3475 15.5258 6.3475C17.4314 6.3475 19.0806 7.0156 20.4664 8.34648C21.857 9.68149 22.5514 11.3664 22.5514 13.3816C22.5514 15.4166 21.8617 17.1047 20.48 18.4315L20.4832 18.433ZM33.5172 9.87562C33.1083 10.5623 32.7912 11.0546 32.5681 11.3522C32.3222 11.6757 32.0794 11.934 31.8388 12.1128C33.7761 12.7392 34.4977 14.0831 34.4977 16.0841V20.1412H34.3019C32.8706 20.1412 31.7096 18.9793 31.7096 17.5459V16.3607C31.7096 15.0644 31.129 14.185 29.7573 14.185H27.2259V20.1421H27.0301C25.5988 20.1421 24.439 18.9802 24.439 17.5468V3.15357C24.439 1.71986 25.5985 0.558594 27.0301 0.558594H27.2259V11.4798H28.0497C28.9551 11.4798 29.5499 11.1699 29.8915 10.5833L32.2329 6.62673L35.4094 6.62357L33.5172 9.87562ZM47.9075 18.433C46.5299 19.755 44.8758 20.4172 42.9522 20.4172C41.0474 20.4172 39.4004 19.7541 38.0234 18.433C36.6417 17.1062 35.9529 15.419 35.9529 13.3831C35.9529 9.41171 38.9817 6.3475 42.9501 6.3475C44.8563 6.3475 46.5048 7.0156 47.8906 8.34648C49.2812 9.68149 49.9753 11.3664 49.9753 13.3816C49.9753 15.4166 49.2859 17.1047 47.9042 18.4315L47.9075 18.433ZM45.8955 10.2361C45.1269 9.43151 44.1515 9.02757 42.9519 9.02757C40.3867 9.02757 38.8505 10.9001 38.8505 13.3831C38.8505 15.8306 40.4225 17.7386 42.9519 17.7386C45.4815 17.7386 47.0532 15.8318 47.0532 13.3831C47.0532 12.0835 46.6629 11.0407 45.8955 10.2361ZM18.4742 10.2361C17.706 9.43151 16.7303 9.02757 15.5309 9.02757C12.9657 9.02757 11.4295 10.9001 11.4295 13.3831C11.4295 15.8306 13.0015 17.7386 15.5309 17.7386C18.0602 17.7386 19.6322 15.8318 19.6322 13.3831C19.6322 12.0835 19.2425 11.0407 18.4748 10.2361H18.4742Z" fill="#8A8A8A"/>
</g>
<defs>
<clipPath id="clip0_30974_1191">
<rect width="118.195" height="25.7075" fill="white" transform="translate(0.208862 0.430664)"/>
</clipPath>
</defs>
</svg>
